# xmcd
#
# Track frame offsets:
# 182
# 4682
# 18550
# 36950
# 59112
# 76802
# 106745
# 131542
# 154950
# 174880
# 196822
# 231660
#
# Disc length: 3586 seconds
#
# Revision: 3
# Processed by: cddbd v1.5.2PL0 Copyright (c) Steve Scherf et al.
# Submitted via: TinyPlayer 2.8
#
DISCID=960e000c
DTITLE=Various Artist - A Retrospective of House '91-'95, Volume 2: Tony De Vit [Disc 2 of 3]
DYEAR=1995
DGENRE=House
TTITLE0=Dekore - Neptune Rising [Original Mix]
TTITLE1=B-Code - Feel Good [Original Mix]
TTITLE2=Diss-Cuss - Save the Day [Original Mix]
TTITLE3=Diss-Cuss - Pissed Apache [Original Mix]
TTITLE4=Itchy and Scratchy - I Want You [Original Mix]
TTITLE5=The Shaker - Strong to Survive [Remix]
TTITLE6=Hyper Go Go - Never Let Go [Mukkaa Mix]
TTITLE7=The Shaker - Just Lick It [Licky Disco Mix]
TTITLE8=The Peppermint Lounge - Lemon Project [Original Mix]
TTITLE9=Eating Habits - May I Have the Mayonnaise [Original Mix]
TTITLE10=99th Floor Elevators - Hooked [TDV Remix]
TTITLE11=Tony De Vit - Burning Up [TDV Remix]
EXTD=
EXTT0=
EXTT1=
EXTT2=
EXTT3=
EXTT4=
EXTT5=
EXTT6=
EXTT7=
EXTT8=
EXTT9=
EXTT10=
EXTT11=
PLAYORDER=
